<?xml version="1.0" encoding="utf-8"?>
<!-- Generator: Adobe Illustrator 25.1.0, SVG Export Plug-In . SVG Version: 6.00 Build 0)  -->
<svg version="1.1" id="Layer_1" xmlns="http://www.w3.org/2000/svg" xmlns:xlink="http://www.w3.org/1999/xlink" x="0px" y="0px"
	 viewBox="0 0 232.1 40" style="enable-background:new 0 0 232.1 40;" xml:space="preserve">
<style type="text/css">
	.st0{fill:#21ABD4;}
	.st1{fill:#FFFFFF;}
	.st2{opacity:0.69;fill:#15AB54;}
	.st3{opacity:0.69;fill:#21ABD4;}
	.st4{opacity:0.69;fill:#8A3833;}
	.st5{opacity:0.69;fill:#CE6E28;}
</style>
<path class="st0" d="M221.8,26.9V31h-4.3v-4.1H221.8z"/>
<path class="st1" d="M11.4,0h17.1C34.9,0,40,5.1,40,11.4v17.1C40,34.9,34.9,40,28.6,40H11.4C5.1,40,0,34.9,0,28.6V11.4
	C0,5.1,5.1,0,11.4,0z"/>
<circle class="st2" cx="9.9" cy="20" r="5.7"/>
<circle class="st3" cx="20" cy="30.1" r="5.7"/>
<circle class="st4" cx="20" cy="9.9" r="5.7"/>
<circle class="st5" cx="30.1" cy="20" r="5.7"/>
<g>
	<path d="M57.8,12.9v1.3c0,0.5-0.4,0.9-0.9,0.9h-3.3c-0.5,0-0.9,0.4-0.9,0.9V30c0,0.5-0.4,0.9-0.9,0.9h-2.1c-0.5,0-0.9-0.4-0.9-0.9
		V15.9c0-0.5-0.4-0.9-0.9-0.9h-3.3c-0.5,0-0.9-0.4-0.9-0.9v-1.3c0-0.5,0.4-0.9,0.9-0.9h12.1C57.4,12,57.8,12.4,57.8,12.9z"/>
	<path d="M59.8,19.3c0.6-1.2,1.4-2.1,2.5-2.7c1-0.6,2.2-0.9,3.5-0.9c1.1,0,2.1,0.2,2.9,0.7c0.8,0.5,1.5,1,2,1.7v-1.3
		c0-0.5,0.4-0.9,0.9-0.9h2.1c0.5,0,0.9,0.4,0.9,0.9V30c0,0.5-0.4,0.9-0.9,0.9h-2.1c-0.5,0-0.9-0.4-0.9-0.9v-1.3
		c-0.5,0.7-1.2,1.3-2,1.7s-1.8,0.7-3,0.7c-1.3,0-2.4-0.3-3.4-1c-1-0.6-1.9-1.6-2.5-2.7c-0.6-1.2-0.9-2.5-0.9-4.1
		C58.9,21.8,59.2,20.5,59.8,19.3z M70.1,21c-0.4-0.7-0.8-1.2-1.5-1.5c-0.6-0.4-1.3-0.5-2-0.5c-0.7,0-1.3,0.2-1.9,0.5
		c-0.6,0.3-1.1,0.8-1.4,1.5c-0.4,0.7-0.6,1.4-0.6,2.3c0,0.9,0.2,1.7,0.6,2.4c0.4,0.7,0.9,1.2,1.5,1.6c0.6,0.4,1.2,0.5,1.9,0.5
		c0.7,0,1.4-0.2,2-0.5c0.6-0.4,1.1-0.9,1.5-1.5c0.4-0.7,0.5-1.4,0.5-2.4S70.5,21.7,70.1,21z"/>
	<path d="M81.3,11.7V30c0,0.5-0.4,0.9-0.9,0.9h-2.1c-0.5,0-0.9-0.4-0.9-0.9V11.7c0-0.5,0.4-0.9,0.9-0.9h2.1
		C80.9,10.9,81.3,11.2,81.3,11.7z"/>
	<path d="M93.1,16.3c0.8,0.4,1.5,1,2,1.7v-1.3c0-0.5,0.4-0.9,0.9-0.9h2.1c0.5,0,0.9,0.4,0.9,0.9V31c0,1.4-0.3,2.6-0.8,3.7
		s-1.4,2-2.5,2.6c-1.1,0.6-2.5,1-4,1c-2.1,0-3.9-0.5-5.2-1.5c-1.1-0.8-1.8-1.8-2.1-3c-0.2-0.5,0.3-1.1,0.8-1.1h2.1
		c0.3,0,0.6,0.2,0.7,0.4c0.2,0.5,0.6,0.9,1.1,1.2c0.7,0.4,1.5,0.6,2.4,0.6c1.1,0,2-0.3,2.7-1c0.7-0.7,1-1.7,1-3v-2.3
		c-0.5,0.7-1.2,1.3-2,1.8c-0.9,0.5-1.8,0.7-2.9,0.7c-1.3,0-2.4-0.3-3.5-1c-1-0.6-1.9-1.6-2.5-2.7c-0.6-1.2-0.9-2.5-0.9-4.1
		c0-1.5,0.3-2.9,0.9-4c0.6-1.2,1.4-2.1,2.5-2.7c1-0.6,2.2-0.9,3.5-0.9C91.3,15.6,92.3,15.9,93.1,16.3z M94.6,21
		c-0.4-0.7-0.8-1.2-1.5-1.5c-0.6-0.4-1.3-0.5-2-0.5s-1.4,0.2-1.9,0.5c-0.6,0.3-1.1,0.8-1.4,1.5c-0.4,0.7-0.6,1.4-0.6,2.3
		c0,0.9,0.2,1.7,0.6,2.4c0.4,0.7,0.9,1.2,1.5,1.6c0.6,0.4,1.2,0.5,1.9,0.5c0.7,0,1.4-0.2,2-0.5c0.6-0.4,1.1-0.9,1.5-1.5
		c0.4-0.7,0.5-1.4,0.5-2.4S94.9,21.7,94.6,21z"/>
	<path d="M116.1,16.7V30c0,0.5-0.4,0.9-0.9,0.9h-2.1c-0.5,0-0.9-0.4-0.9-0.9v-1c-0.5,0.6-1.1,1.2-1.9,1.5s-1.6,0.6-2.6,0.6
		c-1.2,0-2.2-0.2-3.1-0.7c-0.9-0.5-1.6-1.2-2.1-2.2c-0.5-1-0.8-2.1-0.8-3.4v-7.9c0-0.5,0.4-0.9,0.9-0.9h2.1c0.5,0,0.9,0.4,0.9,0.9
		v7.4c0,1.2,0.3,2.1,0.9,2.7c0.6,0.6,1.4,1,2.4,1c1,0,1.9-0.3,2.5-1c0.6-0.6,0.9-1.6,0.9-2.7v-7.4c0-0.5,0.4-0.9,0.9-0.9h2.1
		C115.7,15.9,116.1,16.3,116.1,16.7z"/>
	<path d="M119,19.3c0.6-1.2,1.4-2.1,2.5-2.7c1-0.6,2.2-0.9,3.5-0.9c1.1,0,2.1,0.2,2.9,0.7c0.8,0.5,1.5,1,2,1.7v-1.3
		c0-0.5,0.4-0.9,0.9-0.9h2.1c0.5,0,0.9,0.4,0.9,0.9V30c0,0.5-0.4,0.9-0.9,0.9h-2.1c-0.5,0-0.9-0.4-0.9-0.9v-1.3
		c-0.5,0.7-1.2,1.3-2,1.7c-0.9,0.5-1.8,0.7-3,0.7c-1.3,0-2.4-0.3-3.4-1c-1-0.6-1.9-1.6-2.5-2.7c-0.6-1.2-0.9-2.5-0.9-4.1
		C118.1,21.8,118.4,20.5,119,19.3z M129.4,21c-0.4-0.7-0.8-1.2-1.5-1.5c-0.6-0.4-1.3-0.5-2-0.5s-1.4,0.2-1.9,0.5
		c-0.6,0.3-1.1,0.8-1.4,1.5c-0.4,0.7-0.6,1.4-0.6,2.3c0,0.9,0.2,1.7,0.6,2.4c0.4,0.7,0.9,1.2,1.5,1.6c0.6,0.4,1.2,0.5,1.9,0.5
		c0.7,0,1.4-0.2,2-0.5c0.6-0.4,1.1-0.9,1.5-1.5c0.4-0.7,0.5-1.4,0.5-2.4S129.7,21.7,129.4,21z"/>
	<path d="M155.3,12.9v1.3c0,0.5-0.4,0.9-0.9,0.9h-3.3c-0.5,0-0.9,0.4-0.9,0.9V30c0,0.5-0.4,0.9-0.9,0.9h-2.1c-0.5,0-0.9-0.4-0.9-0.9
		V15.9c0-0.5-0.4-0.9-0.9-0.9h-3.3c-0.5,0-0.9-0.4-0.9-0.9v-1.3c0-0.5,0.4-0.9,0.9-0.9h12.1C154.9,12,155.3,12.4,155.3,12.9z"/>
	<path d="M160.2,30.1c-1.2-0.6-2.1-1.5-2.7-2.7s-1-2.5-1-4s0.3-2.9,1-4s1.6-2.1,2.8-2.7c1.2-0.6,2.5-1,3.9-1c1.4,0,2.7,0.3,3.9,1
		c1.2,0.6,2.1,1.5,2.8,2.7c0.7,1.2,1,2.5,1,4s-0.3,2.9-1,4c-0.7,1.2-1.6,2.1-2.8,2.7c-1.2,0.6-2.5,1-4,1
		C162.6,31.1,161.3,30.8,160.2,30.1z M166,27.3c0.6-0.3,1.1-0.8,1.4-1.5s0.5-1.5,0.5-2.4c0-1.4-0.4-2.5-1.1-3.3
		c-0.7-0.8-1.7-1.1-2.7-1.1s-2,0.4-2.7,1.1c-0.7,0.8-1.1,1.9-1.1,3.3s0.4,2.5,1.1,3.3c0.7,0.8,1.6,1.1,2.7,1.1
		C164.7,27.8,165.4,27.6,166,27.3z"/>
	<path d="M188.1,16.7V30c0,0.5-0.4,0.9-0.9,0.9h-2.1c-0.5,0-0.9-0.4-0.9-0.9v-1c-0.5,0.6-1.1,1.2-1.9,1.5s-1.6,0.6-2.6,0.6
		c-1.2,0-2.2-0.2-3.1-0.7c-0.9-0.5-1.6-1.2-2.1-2.2c-0.5-1-0.8-2.1-0.8-3.4v-7.9c0-0.5,0.4-0.9,0.9-0.9h2.1c0.5,0,0.9,0.4,0.9,0.9
		v7.4c0,1.2,0.3,2.1,0.9,2.7c0.6,0.6,1.4,1,2.4,1c1,0,1.9-0.3,2.5-1c0.6-0.6,0.9-1.6,0.9-2.7v-7.4c0-0.5,0.4-0.9,0.9-0.9h2.1
		C187.7,15.9,188.1,16.3,188.1,16.7z"/>
	<path d="M196.8,16.3c0.5-0.3,1.1-0.5,1.7-0.6c0.5-0.1,1,0.3,1,0.9v3h-1c-1.2,0-2.1,0.3-2.7,0.8c-0.6,0.6-0.9,1.5-0.9,2.9V30
		c0,0.5-0.4,0.9-0.9,0.9H192c-0.5,0-0.9-0.4-0.9-0.9V16.7c0-0.5,0.4-0.9,0.9-0.9h2.1c0.5,0,0.9,0.4,0.9,0.9v1.5
		C195.4,17.4,196,16.8,196.8,16.3z"/>
	<path d="M203.8,30.4c-1-0.4-1.7-1-2.3-1.8c-0.3-0.5-0.6-0.9-0.7-1.5c-0.2-0.5,0.3-1.1,0.8-1.1h2.1c0.4,0,0.7,0.2,0.8,0.5
		c0.1,0.3,0.4,0.6,0.7,0.9c0.5,0.4,1.1,0.6,1.8,0.6c0.7,0,1.3-0.1,1.7-0.4c0.4-0.3,0.6-0.7,0.6-1.1c0-0.5-0.2-0.9-0.7-1.1
		s-1.3-0.5-2.4-0.8c-1.1-0.3-2-0.5-2.7-0.8c-0.7-0.3-1.3-0.7-1.8-1.3c-0.5-0.6-0.8-1.4-0.8-2.4c0-0.8,0.2-1.6,0.7-2.3
		c0.5-0.7,1.2-1.2,2.1-1.6c0.9-0.4,1.9-0.6,3.1-0.6c1.8,0,3.2,0.4,4.3,1.3c0.8,0.7,1.3,1.5,1.6,2.6c0.1,0.5-0.3,1-0.8,1h-1.9
		c-0.4,0-0.7-0.2-0.8-0.6c-0.1-0.3-0.3-0.6-0.6-0.8c-0.4-0.4-1-0.5-1.8-0.5c-0.7,0-1.2,0.1-1.6,0.4c-0.4,0.3-0.6,0.6-0.6,1.1
		c0,0.5,0.3,0.9,0.8,1.1s1.3,0.5,2.3,0.8c1.1,0.3,2,0.5,2.7,0.8c0.7,0.3,1.3,0.7,1.8,1.3c0.5,0.6,0.8,1.4,0.8,2.4
		c0,0.9-0.2,1.6-0.7,2.3c-0.5,0.7-1.2,1.2-2.1,1.6c-0.9,0.4-1.9,0.6-3.1,0.6C205.9,31.1,204.8,30.9,203.8,30.4z"/>
</g>
</svg>
