<?xml version="1.0" standalone="no"?>
<!DOCTYPE svg PUBLIC "-//W3C//DTD SVG 20010904//EN"
 "http://www.w3.org/TR/2001/REC-SVG-20010904/DTD/svg10.dtd">
<svg version="1.0" xmlns="http://www.w3.org/2000/svg"
 width="260.000000pt" height="260.000000pt" viewBox="0 0 260.000000 260.000000"
 preserveAspectRatio="xMidYMid meet">
<metadata>
Created by potrace 1.11, written by Peter Selinger 2001-2013
</metadata>
<g transform="translate(0.000000,260.000000) scale(0.100000,-0.100000)"
fill="#000000" stroke="none">
<path d="M553 2576 c-250 -69 -436 -244 -518 -491 l-30 -90 0 -680 c0 -374 4
-700 8 -724 46 -248 252 -474 505 -557 l87 -29 695 0 695 0 75 24 c262 82 452
288 514 556 14 61 15 155 13 740 -3 744 0 710 -72 859 -89 185 -264 330 -470
392 -55 16 -119 18 -740 20 -678 3 -680 3 -762 -20z"/>
</g>
</svg>
